<svg width="136" height="90" viewBox="0 0 136 90" fill="none" xmlns="http://www.w3.org/2000/svg">
<g opacity="0.5" filter="url(#filter0_df_326_3463)">
<path fill-rule="evenodd" clip-rule="evenodd" d="M86.636 14.8823C90.5527 12.1626 95.3319 10.5684 100.483 10.574C113.434 10.588 124.016 20.7136 124.455 33.4042L125.756 55.5637C127.032 67.9806 122.85 76.1724 116.402 78.9184C109.906 81.6847 102.133 78.5009 97.2602 70.2941C97.2544 70.2844 97.2487 70.2746 97.2432 70.2647C97.2387 70.2568 97.2343 70.2488 97.23 70.2408L89.511 55.9389L62.8732 55.91L47.0101 55.8929L40.8314 66.0742C40.8305 66.0758 40.8296 66.0773 40.8286 66.0789C35.8754 74.3765 27.3788 77.4042 20.4443 75.3053C16.9766 74.2557 13.956 71.9298 12.0706 68.4344C10.1938 64.955 9.49356 60.4184 10.4449 54.99L12.859 32.7036C13.6222 20.2869 24.0977 10.4914 36.8518 10.5052C42.0025 10.5108 46.7782 12.1153 50.689 14.8434L62.9176 14.8567L86.636 14.8823ZM100.479 13.574C95.8018 13.5689 91.4851 15.065 87.994 17.5971C87.7375 17.7831 87.4286 17.8832 87.1117 17.8828L62.9143 17.8567L50.2068 17.8429C49.8899 17.8426 49.5813 17.7419 49.3251 17.5553C45.8395 15.0157 41.5261 13.5102 36.8485 13.5052C25.6376 13.4931 16.4993 22.1036 15.8515 32.9196C15.85 32.9436 15.848 32.9676 15.8454 32.9915L13.4221 55.3626C13.4184 55.396 13.4137 55.4293 13.4078 55.4624C12.5364 60.3873 13.2109 64.2291 14.7109 67.0101C16.2081 69.7858 18.5795 71.6064 21.3134 72.4339C26.7811 74.0889 33.9248 71.7949 38.2551 64.5371L38.2609 64.5274L38.2609 64.5274L44.884 53.6138C45.1563 53.1651 45.6432 52.8914 46.168 52.892L62.8764 52.9101L90.4081 52.9398C90.9589 52.9404 91.465 53.2428 91.7265 53.7274L99.8552 68.7885C104.232 76.1395 110.558 78.1464 115.227 76.1582C119.943 74.1499 123.99 67.6426 122.769 55.8391C122.767 55.817 122.765 55.7949 122.763 55.7727L121.459 33.5616C121.458 33.5492 121.457 33.5368 121.457 33.5243C121.084 22.4779 111.859 13.5863 100.479 13.574Z" fill="#CC00FF"/>
<path d="M95.9641 24.5473C95.9614 26.9922 97.9775 28.9838 100.463 28.9865C102.948 28.9891 104.968 27.0077 104.971 24.5571C104.974 22.1064 102.958 20.1206 100.472 20.1179C97.9871 20.1152 95.9667 22.0966 95.9641 24.5473Z" fill="#CC00FF"/>
<path d="M95.9447 42.4344C95.942 44.8793 97.9581 46.8709 100.443 46.8735C102.929 46.8762 104.949 44.8948 104.952 42.4441C104.954 39.9935 102.938 38.0077 100.453 38.005C97.9677 38.0023 95.9473 39.9837 95.9447 42.4344Z" fill="#CC00FF"/>
<path d="M109.55 29.0713C107.065 29.0686 105.045 31.05 105.042 33.5007C105.039 35.9514 107.055 37.9371 109.541 37.9398C112.026 37.9425 114.046 35.9611 114.049 33.5104C114.057 31.0598 112.041 29.074 109.55 29.0713Z" fill="#CC00FF"/>
<path d="M91.3749 29.0516C88.8897 29.0489 86.8693 31.0304 86.8667 33.481C86.864 35.9317 88.8801 37.9175 91.3653 37.9202C93.8506 37.9229 95.871 35.9414 95.8736 33.4908C95.8763 31.0401 93.8602 29.0543 91.3749 29.0516Z" fill="#CC00FF"/>
<path d="M43.359 34.4667C43.3582 35.1847 42.7755 35.7661 42.0576 35.7653L37.9777 35.7609C37.2597 35.7601 36.677 36.3415 36.6763 37.0595L36.6719 41.1394C36.6711 41.8574 36.0884 42.4388 35.3704 42.438L31.1774 42.4335C30.4594 42.4327 29.878 41.85 29.8788 41.1321L29.8832 37.0521C29.884 36.3342 29.3026 35.7515 28.5846 35.7507L24.4756 35.7463C23.7576 35.7455 23.1762 35.1629 23.177 34.4449L23.1816 30.2227C23.1823 29.5047 23.765 28.9233 24.483 28.9241L28.592 28.9286C29.31 28.9293 29.8927 28.3479 29.8934 27.63L29.8978 23.5501C29.8986 22.8321 30.4813 22.2507 31.1992 22.2515L35.3923 22.256C36.1102 22.2568 36.6916 22.8394 36.6909 23.5574L36.6865 27.6373C36.6857 28.3553 37.2671 28.9379 37.9851 28.9387L42.065 28.9431C42.7829 28.9439 43.3643 29.5266 43.3636 30.2445L43.359 34.4667Z" fill="#CC00FF"/>
</g>
<g opacity="0.5" filter="url(#filter1_df_326_3463)">
<path fill-rule="evenodd" clip-rule="evenodd" d="M86.636 14.8823C90.5527 12.1626 95.3319 10.5684 100.483 10.574C113.434 10.588 124.016 20.7136 124.455 33.4042L125.756 55.5637C127.032 67.9806 122.85 76.1724 116.402 78.9184C109.906 81.6847 102.133 78.5009 97.2602 70.2941C97.2544 70.2844 97.2487 70.2746 97.2432 70.2647C97.2387 70.2568 97.2343 70.2488 97.23 70.2408L89.511 55.9389L62.8732 55.91L47.0101 55.8929L40.8314 66.0742C40.8305 66.0758 40.8296 66.0773 40.8286 66.0789C35.8754 74.3765 27.3788 77.4042 20.4443 75.3053C16.9766 74.2557 13.956 71.9298 12.0706 68.4344C10.1938 64.955 9.49356 60.4184 10.4449 54.99L12.859 32.7036C13.6222 20.2869 24.0977 10.4914 36.8518 10.5052C42.0025 10.5108 46.7782 12.1153 50.689 14.8434L62.9176 14.8567L86.636 14.8823ZM100.479 13.574C95.8018 13.5689 91.4851 15.065 87.994 17.5971C87.7375 17.7831 87.4286 17.8832 87.1117 17.8828L62.9143 17.8567L50.2068 17.8429C49.8899 17.8426 49.5813 17.7419 49.3251 17.5553C45.8395 15.0157 41.5261 13.5102 36.8485 13.5052C25.6376 13.4931 16.4993 22.1036 15.8515 32.9196C15.85 32.9436 15.848 32.9676 15.8454 32.9915L13.4221 55.3626C13.4184 55.396 13.4137 55.4293 13.4078 55.4624C12.5364 60.3873 13.2109 64.2291 14.7109 67.0101C16.2081 69.7858 18.5795 71.6064 21.3134 72.4339C26.7811 74.0889 33.9248 71.7949 38.2551 64.5371L38.2609 64.5274L38.2609 64.5274L44.884 53.6138C45.1563 53.1651 45.6432 52.8914 46.168 52.892L62.8764 52.9101L90.4081 52.9398C90.9589 52.9404 91.465 53.2428 91.7265 53.7274L99.8552 68.7885C104.232 76.1395 110.558 78.1464 115.227 76.1582C119.943 74.1499 123.99 67.6426 122.769 55.8391C122.767 55.817 122.765 55.7949 122.763 55.7727L121.459 33.5616C121.458 33.5492 121.457 33.5368 121.457 33.5243C121.084 22.4779 111.859 13.5863 100.479 13.574Z" fill="#CC00FF"/>
<path d="M95.9641 24.5473C95.9614 26.9922 97.9775 28.9838 100.463 28.9865C102.948 28.9891 104.968 27.0077 104.971 24.5571C104.974 22.1064 102.958 20.1206 100.472 20.1179C97.9871 20.1152 95.9667 22.0966 95.9641 24.5473Z" fill="#CC00FF"/>
<path d="M95.9447 42.4344C95.942 44.8793 97.9581 46.8709 100.443 46.8735C102.929 46.8762 104.949 44.8948 104.952 42.4441C104.954 39.9935 102.938 38.0077 100.453 38.005C97.9677 38.0023 95.9473 39.9837 95.9447 42.4344Z" fill="#CC00FF"/>
<path d="M109.55 29.0713C107.065 29.0686 105.045 31.05 105.042 33.5007C105.039 35.9514 107.055 37.9371 109.541 37.9398C112.026 37.9425 114.046 35.9611 114.049 33.5104C114.057 31.0598 112.041 29.074 109.55 29.0713Z" fill="#CC00FF"/>
<path d="M91.3749 29.0516C88.8897 29.0489 86.8693 31.0304 86.8667 33.481C86.864 35.9317 88.8801 37.9175 91.3653 37.9202C93.8506 37.9229 95.871 35.9414 95.8736 33.4908C95.8763 31.0401 93.8602 29.0543 91.3749 29.0516Z" fill="#CC00FF"/>
<path d="M43.359 34.4667C43.3582 35.1847 42.7755 35.7661 42.0576 35.7653L37.9777 35.7609C37.2597 35.7601 36.677 36.3415 36.6763 37.0595L36.6719 41.1394C36.6711 41.8574 36.0884 42.4388 35.3704 42.438L31.1774 42.4335C30.4594 42.4327 29.878 41.85 29.8788 41.1321L29.8832 37.0521C29.884 36.3342 29.3026 35.7515 28.5846 35.7507L24.4756 35.7463C23.7576 35.7455 23.1762 35.1629 23.177 34.4449L23.1816 30.2227C23.1823 29.5047 23.765 28.9233 24.483 28.9241L28.592 28.9286C29.31 28.9293 29.8927 28.3479 29.8934 27.63L29.8978 23.5501C29.8986 22.8321 30.4813 22.2507 31.1992 22.2515L35.3923 22.256C36.1102 22.2568 36.6916 22.8394 36.6909 23.5574L36.6865 27.6373C36.6857 28.3553 37.2671 28.9379 37.9851 28.9387L42.065 28.9431C42.7829 28.9439 43.3643 29.5266 43.3636 30.2445L43.359 34.4667Z" fill="#CC00FF"/>
</g>
<path fill-rule="evenodd" clip-rule="evenodd" d="M87.1131 16.3828L62.9158 16.3566L50.2083 16.3429C46.4737 13.6219 41.8532 12.0105 36.85 12.0051C24.8612 11.9922 15.0503 21.2048 14.3539 32.8298L11.9306 55.201C9.19935 74.5523 30.2506 80.9939 39.5431 65.3056L46.1661 54.392L62.8746 54.41L90.2157 54.4396L96.6215 66.7303C102.143 79.6136 126.769 79.9238 124.261 55.6847L122.956 33.4725C122.554 21.6001 112.65 12.0871 100.481 12.0739C95.4775 12.0685 90.8536 13.6699 87.1131 16.3828ZM100.463 28.9865C97.9774 28.9838 95.9614 26.9922 95.964 24.5473C95.9667 22.0967 97.987 20.1152 100.472 20.1179C102.958 20.1206 104.974 22.1064 104.971 24.5571C104.968 27.0077 102.948 28.9892 100.463 28.9865ZM95.9445 42.4343C95.9419 44.8792 97.9579 46.8708 100.443 46.8735C102.928 46.8761 104.949 44.8947 104.951 42.444C104.954 39.9934 102.938 38.0076 100.453 38.0049C97.9675 38.0022 95.9472 39.9836 95.9445 42.4343ZM105.042 33.5006C105.045 31.05 107.065 29.0686 109.55 29.0712C112.041 29.0739 114.057 31.0597 114.049 33.5104C114.046 35.9611 112.026 37.9425 109.541 37.9398C107.055 37.9371 105.039 35.9513 105.042 33.5006ZM91.375 29.0516C88.8897 29.0489 86.8693 31.0303 86.8667 33.481C86.864 35.9317 88.8801 37.9174 91.3654 37.9201C93.8506 37.9228 95.871 35.9414 95.8736 33.4907C95.8763 31.0401 93.8602 29.0543 91.375 29.0516ZM42.0575 35.7653C42.7755 35.7661 43.3581 35.1847 43.3589 34.4667L43.3635 30.2445C43.3642 29.5265 42.7828 28.9439 42.0649 28.9431L37.985 28.9387C37.267 28.9379 36.6856 28.3553 36.6864 27.6373L36.6908 23.5574C36.6916 22.8394 36.1102 22.2568 35.3922 22.256L31.1992 22.2514C30.4812 22.2507 29.8985 22.8321 29.8978 23.55L29.8933 27.6299C29.8926 28.3479 29.3099 28.9293 28.5919 28.9285L24.4829 28.9241C23.7649 28.9233 23.1822 29.5047 23.1815 30.2227L23.1769 34.4449C23.1761 35.1628 23.7575 35.7455 24.4755 35.7463L28.5846 35.7507C29.3025 35.7515 29.8839 36.3342 29.8831 37.0521L29.8787 41.132C29.878 41.85 30.4594 42.4327 31.1773 42.4334L35.3704 42.438C36.0883 42.4388 36.671 41.8574 36.6718 41.1394L36.6762 37.0595C36.677 36.3415 37.2596 35.7601 37.9776 35.7609L42.0575 35.7653Z" fill="white"/>
<defs>
<filter id="filter0_df_326_3463" x="0.0217285" y="0.505127" width="135.964" height="89.3899" filterUnits="userSpaceOnUse" color-interpolation-filters="sRGB">
<feFlood flood-opacity="0" result="BackgroundImageFix"/>
<feColorMatrix in="SourceAlpha" type="matrix" values="0 0 0 0 0 0 0 0 0 0 0 0 0 0 0 0 0 0 127 0" result="hardAlpha"/>
<feOffset/>
<feGaussianBlur stdDeviation="5"/>
<feComposite in2="hardAlpha" operator="out"/>
<feColorMatrix type="matrix" values="0 0 0 0 0.8 0 0 0 0 0 0 0 0 0 1 0 0 0 0.5 0"/>
<feBlend mode="normal" in2="BackgroundImageFix" result="effect1_dropShadow_326_3463"/>
<feBlend mode="normal" in="SourceGraphic" in2="effect1_dropShadow_326_3463" result="shape"/>
<feGaussianBlur stdDeviation="5" result="effect2_foregroundBlur_326_3463"/>
</filter>
<filter id="filter1_df_326_3463" x="0.0217285" y="0.505127" width="135.964" height="89.3899" filterUnits="userSpaceOnUse" color-interpolation-filters="sRGB">
<feFlood flood-opacity="0" result="BackgroundImageFix"/>
<feColorMatrix in="SourceAlpha" type="matrix" values="0 0 0 0 0 0 0 0 0 0 0 0 0 0 0 0 0 0 127 0" result="hardAlpha"/>
<feOffset/>
<feGaussianBlur stdDeviation="5"/>
<feComposite in2="hardAlpha" operator="out"/>
<feColorMatrix type="matrix" values="0 0 0 0 0.8 0 0 0 0 0 0 0 0 0 1 0 0 0 0.5 0"/>
<feBlend mode="normal" in2="BackgroundImageFix" result="effect1_dropShadow_326_3463"/>
<feBlend mode="normal" in="SourceGraphic" in2="effect1_dropShadow_326_3463" result="shape"/>
<feGaussianBlur stdDeviation="5" result="effect2_foregroundBlur_326_3463"/>
</filter>
</defs>
</svg>
